<mxfile host="app.diagrams.net" modified="2020-10-19T22:20:10.449Z" agent="5.0 (X11; Linux x86_64) AppleWebKit/537.36 (KHTML, like Gecko) Chrome/85.0.4183.121 Safari/537.36" etag="W-BjQfYRuvu3zTU6aYfw" version="13.8.0" type="github">
  <diagram id="C5RBs43oDa-KdzZeNtuy" name="Page-1">
    <mxGraphModel dx="1417" dy="764" grid="1" gridSize="10" guides="1" tooltips="1" connect="1" arrows="1" fold="1" page="1" pageScale="1" pageWidth="827" pageHeight="1169" math="0" shadow="0">
      <root>
        <mxCell id="WIyWlLk6GJQsqaUBKTNV-0" />
        <mxCell id="WIyWlLk6GJQsqaUBKTNV-1" parent="WIyWlLk6GJQsqaUBKTNV-0" />
        <mxCell id="lSlasT7Fg2n5aYY_RcPW-0" value="User" style="swimlane;fontStyle=1;childLayout=stackLayout;horizontal=1;startSize=26;fillColor=none;horizontalStack=0;resizeParent=1;resizeParentMax=0;resizeLast=0;collapsible=1;marginBottom=0;" vertex="1" parent="WIyWlLk6GJQsqaUBKTNV-1">
          <mxGeometry x="160" y="120" width="140" height="104" as="geometry" />
        </mxCell>
        <mxCell id="lSlasT7Fg2n5aYY_RcPW-1" value="id [ PK ]" style="text;strokeColor=none;fillColor=none;align=left;verticalAlign=top;spacingLeft=4;spacingRight=4;overflow=hidden;rotatable=0;points=[[0,0.5],[1,0.5]];portConstraint=eastwest;" vertex="1" parent="lSlasT7Fg2n5aYY_RcPW-0">
          <mxGeometry y="26" width="140" height="26" as="geometry" />
        </mxCell>
        <mxCell id="lSlasT7Fg2n5aYY_RcPW-2" value="username: string" style="text;strokeColor=none;fillColor=none;align=left;verticalAlign=top;spacingLeft=4;spacingRight=4;overflow=hidden;rotatable=0;points=[[0,0.5],[1,0.5]];portConstraint=eastwest;" vertex="1" parent="lSlasT7Fg2n5aYY_RcPW-0">
          <mxGeometry y="52" width="140" height="26" as="geometry" />
        </mxCell>
        <mxCell id="lSlasT7Fg2n5aYY_RcPW-3" value="+ field: type" style="text;strokeColor=none;fillColor=none;align=left;verticalAlign=top;spacingLeft=4;spacingRight=4;overflow=hidden;rotatable=0;points=[[0,0.5],[1,0.5]];portConstraint=eastwest;" vertex="1" parent="lSlasT7Fg2n5aYY_RcPW-0">
          <mxGeometry y="78" width="140" height="26" as="geometry" />
        </mxCell>
        <mxCell id="lSlasT7Fg2n5aYY_RcPW-21" value="&lt;font style=&quot;font-size: 24px&quot;&gt;ENUMS&lt;/font&gt;" style="text;html=1;strokeColor=none;fillColor=none;align=center;verticalAlign=middle;whiteSpace=wrap;rounded=0;" vertex="1" parent="WIyWlLk6GJQsqaUBKTNV-1">
          <mxGeometry x="1160" y="80" width="200" height="110" as="geometry" />
        </mxCell>
        <mxCell id="lSlasT7Fg2n5aYY_RcPW-8" value="&lt;&lt;enumeration&gt;&gt; &#xa;roles" style="swimlane;fontStyle=1;childLayout=stackLayout;horizontal=1;startSize=49;fillColor=none;horizontalStack=0;resizeParent=1;resizeParentMax=0;resizeLast=0;collapsible=1;marginBottom=0;" vertex="1" parent="WIyWlLk6GJQsqaUBKTNV-1">
          <mxGeometry x="1420" y="224" width="140" height="153" as="geometry" />
        </mxCell>
        <mxCell id="lSlasT7Fg2n5aYY_RcPW-9" value="ANONYME" style="text;strokeColor=none;fillColor=none;align=left;verticalAlign=top;spacingLeft=4;spacingRight=4;overflow=hidden;rotatable=0;points=[[0,0.5],[1,0.5]];portConstraint=eastwest;" vertex="1" parent="lSlasT7Fg2n5aYY_RcPW-8">
          <mxGeometry y="49" width="140" height="26" as="geometry" />
        </mxCell>
        <mxCell id="lSlasT7Fg2n5aYY_RcPW-10" value="ENREGISTRE" style="text;strokeColor=none;fillColor=none;align=left;verticalAlign=top;spacingLeft=4;spacingRight=4;overflow=hidden;rotatable=0;points=[[0,0.5],[1,0.5]];portConstraint=eastwest;" vertex="1" parent="lSlasT7Fg2n5aYY_RcPW-8">
          <mxGeometry y="75" width="140" height="26" as="geometry" />
        </mxCell>
        <mxCell id="lSlasT7Fg2n5aYY_RcPW-11" value="PREMIUM" style="text;strokeColor=none;fillColor=none;align=left;verticalAlign=top;spacingLeft=4;spacingRight=4;overflow=hidden;rotatable=0;points=[[0,0.5],[1,0.5]];portConstraint=eastwest;" vertex="1" parent="lSlasT7Fg2n5aYY_RcPW-8">
          <mxGeometry y="101" width="140" height="26" as="geometry" />
        </mxCell>
        <mxCell id="lSlasT7Fg2n5aYY_RcPW-19" value="ADMIN" style="text;strokeColor=none;fillColor=none;align=left;verticalAlign=top;spacingLeft=4;spacingRight=4;overflow=hidden;rotatable=0;points=[[0,0.5],[1,0.5]];portConstraint=eastwest;" vertex="1" parent="lSlasT7Fg2n5aYY_RcPW-8">
          <mxGeometry y="127" width="140" height="26" as="geometry" />
        </mxCell>
        <mxCell id="lSlasT7Fg2n5aYY_RcPW-4" value="&lt;&lt;enumeration&gt;&gt; &#xa;permissions" style="swimlane;fontStyle=1;childLayout=stackLayout;horizontal=1;startSize=49;fillColor=none;horizontalStack=0;resizeParent=1;resizeParentMax=0;resizeLast=0;collapsible=1;marginBottom=0;" vertex="1" parent="WIyWlLk6GJQsqaUBKTNV-1">
          <mxGeometry x="1220" y="220" width="140" height="309" as="geometry" />
        </mxCell>
        <mxCell id="lSlasT7Fg2n5aYY_RcPW-5" value="LR" style="text;strokeColor=none;fillColor=none;align=left;verticalAlign=top;spacingLeft=4;spacingRight=4;overflow=hidden;rotatable=0;points=[[0,0.5],[1,0.5]];portConstraint=eastwest;" vertex="1" parent="lSlasT7Fg2n5aYY_RcPW-4">
          <mxGeometry y="49" width="140" height="26" as="geometry" />
        </mxCell>
        <mxCell id="lSlasT7Fg2n5aYY_RcPW-6" value="CR" style="text;strokeColor=none;fillColor=none;align=left;verticalAlign=top;spacingLeft=4;spacingRight=4;overflow=hidden;rotatable=0;points=[[0,0.5],[1,0.5]];portConstraint=eastwest;" vertex="1" parent="lSlasT7Fg2n5aYY_RcPW-4">
          <mxGeometry y="75" width="140" height="26" as="geometry" />
        </mxCell>
        <mxCell id="lSlasT7Fg2n5aYY_RcPW-7" value="PUB&#xa;" style="text;strokeColor=none;fillColor=none;align=left;verticalAlign=top;spacingLeft=4;spacingRight=4;overflow=hidden;rotatable=0;points=[[0,0.5],[1,0.5]];portConstraint=eastwest;" vertex="1" parent="lSlasT7Fg2n5aYY_RcPW-4">
          <mxGeometry y="101" width="140" height="26" as="geometry" />
        </mxCell>
        <mxCell id="lSlasT7Fg2n5aYY_RcPW-12" value="COEUR" style="text;strokeColor=none;fillColor=none;align=left;verticalAlign=top;spacingLeft=4;spacingRight=4;overflow=hidden;rotatable=0;points=[[0,0.5],[1,0.5]];portConstraint=eastwest;" vertex="1" parent="lSlasT7Fg2n5aYY_RcPW-4">
          <mxGeometry y="127" width="140" height="26" as="geometry" />
        </mxCell>
        <mxCell id="lSlasT7Fg2n5aYY_RcPW-13" value="TAG" style="text;strokeColor=none;fillColor=none;align=left;verticalAlign=top;spacingLeft=4;spacingRight=4;overflow=hidden;rotatable=0;points=[[0,0.5],[1,0.5]];portConstraint=eastwest;" vertex="1" parent="lSlasT7Fg2n5aYY_RcPW-4">
          <mxGeometry y="153" width="140" height="26" as="geometry" />
        </mxCell>
        <mxCell id="lSlasT7Fg2n5aYY_RcPW-14" value="CAT" style="text;strokeColor=none;fillColor=none;align=left;verticalAlign=top;spacingLeft=4;spacingRight=4;overflow=hidden;rotatable=0;points=[[0,0.5],[1,0.5]];portConstraint=eastwest;" vertex="1" parent="lSlasT7Fg2n5aYY_RcPW-4">
          <mxGeometry y="179" width="140" height="26" as="geometry" />
        </mxCell>
        <mxCell id="lSlasT7Fg2n5aYY_RcPW-15" value="COTER:" style="text;strokeColor=none;fillColor=none;align=left;verticalAlign=top;spacingLeft=4;spacingRight=4;overflow=hidden;rotatable=0;points=[[0,0.5],[1,0.5]];portConstraint=eastwest;" vertex="1" parent="lSlasT7Fg2n5aYY_RcPW-4">
          <mxGeometry y="205" width="140" height="26" as="geometry" />
        </mxCell>
        <mxCell id="lSlasT7Fg2n5aYY_RcPW-16" value="CARNET" style="text;strokeColor=none;fillColor=none;align=left;verticalAlign=top;spacingLeft=4;spacingRight=4;overflow=hidden;rotatable=0;points=[[0,0.5],[1,0.5]];portConstraint=eastwest;" vertex="1" parent="lSlasT7Fg2n5aYY_RcPW-4">
          <mxGeometry y="231" width="140" height="26" as="geometry" />
        </mxCell>
        <mxCell id="lSlasT7Fg2n5aYY_RcPW-17" value="VALID" style="text;strokeColor=none;fillColor=none;align=left;verticalAlign=top;spacingLeft=4;spacingRight=4;overflow=hidden;rotatable=0;points=[[0,0.5],[1,0.5]];portConstraint=eastwest;" vertex="1" parent="lSlasT7Fg2n5aYY_RcPW-4">
          <mxGeometry y="257" width="140" height="26" as="geometry" />
        </mxCell>
        <mxCell id="lSlasT7Fg2n5aYY_RcPW-18" value="COTER" style="text;strokeColor=none;fillColor=none;align=left;verticalAlign=top;spacingLeft=4;spacingRight=4;overflow=hidden;rotatable=0;points=[[0,0.5],[1,0.5]];portConstraint=eastwest;" vertex="1" parent="lSlasT7Fg2n5aYY_RcPW-4">
          <mxGeometry y="283" width="140" height="26" as="geometry" />
        </mxCell>
        <mxCell id="lSlasT7Fg2n5aYY_RcPW-23" value="Recipe" style="swimlane;fontStyle=1;childLayout=stackLayout;horizontal=1;startSize=26;fillColor=none;horizontalStack=0;resizeParent=1;resizeParentMax=0;resizeLast=0;collapsible=1;marginBottom=0;" vertex="1" parent="WIyWlLk6GJQsqaUBKTNV-1">
          <mxGeometry x="340" y="120" width="140" height="104" as="geometry" />
        </mxCell>
        <mxCell id="lSlasT7Fg2n5aYY_RcPW-24" value="id [ PK ]" style="text;strokeColor=none;fillColor=none;align=left;verticalAlign=top;spacingLeft=4;spacingRight=4;overflow=hidden;rotatable=0;points=[[0,0.5],[1,0.5]];portConstraint=eastwest;" vertex="1" parent="lSlasT7Fg2n5aYY_RcPW-23">
          <mxGeometry y="26" width="140" height="26" as="geometry" />
        </mxCell>
        <mxCell id="lSlasT7Fg2n5aYY_RcPW-25" value="username: string" style="text;strokeColor=none;fillColor=none;align=left;verticalAlign=top;spacingLeft=4;spacingRight=4;overflow=hidden;rotatable=0;points=[[0,0.5],[1,0.5]];portConstraint=eastwest;" vertex="1" parent="lSlasT7Fg2n5aYY_RcPW-23">
          <mxGeometry y="52" width="140" height="26" as="geometry" />
        </mxCell>
        <mxCell id="lSlasT7Fg2n5aYY_RcPW-26" value="+ field: type" style="text;strokeColor=none;fillColor=none;align=left;verticalAlign=top;spacingLeft=4;spacingRight=4;overflow=hidden;rotatable=0;points=[[0,0.5],[1,0.5]];portConstraint=eastwest;" vertex="1" parent="lSlasT7Fg2n5aYY_RcPW-23">
          <mxGeometry y="78" width="140" height="26" as="geometry" />
        </mxCell>
        <mxCell id="lSlasT7Fg2n5aYY_RcPW-27" value="&lt;&lt;enumeration&gt;&gt; &#xa;Volumes" style="swimlane;fontStyle=1;childLayout=stackLayout;horizontal=1;startSize=46;fillColor=none;horizontalStack=0;resizeParent=1;resizeParentMax=0;resizeLast=0;collapsible=1;marginBottom=0;" vertex="1" parent="WIyWlLk6GJQsqaUBKTNV-1">
          <mxGeometry x="1030" y="224" width="140" height="120" as="geometry" />
        </mxCell>
        <mxCell id="lSlasT7Fg2n5aYY_RcPW-28" value="L" style="text;strokeColor=none;fillColor=none;align=left;verticalAlign=top;spacingLeft=4;spacingRight=4;overflow=hidden;rotatable=0;points=[[0,0.5],[1,0.5]];portConstraint=eastwest;" vertex="1" parent="lSlasT7Fg2n5aYY_RcPW-27">
          <mxGeometry y="46" width="140" height="22" as="geometry" />
        </mxCell>
        <mxCell id="lSlasT7Fg2n5aYY_RcPW-29" value="CL" style="text;strokeColor=none;fillColor=none;align=left;verticalAlign=top;spacingLeft=4;spacingRight=4;overflow=hidden;rotatable=0;points=[[0,0.5],[1,0.5]];portConstraint=eastwest;" vertex="1" parent="lSlasT7Fg2n5aYY_RcPW-27">
          <mxGeometry y="68" width="140" height="26" as="geometry" />
        </mxCell>
        <mxCell id="lSlasT7Fg2n5aYY_RcPW-30" value="ML" style="text;strokeColor=none;fillColor=none;align=left;verticalAlign=top;spacingLeft=4;spacingRight=4;overflow=hidden;rotatable=0;points=[[0,0.5],[1,0.5]];portConstraint=eastwest;" vertex="1" parent="lSlasT7Fg2n5aYY_RcPW-27">
          <mxGeometry y="94" width="140" height="26" as="geometry" />
        </mxCell>
        <mxCell id="lSlasT7Fg2n5aYY_RcPW-31" value="&lt;&lt;enumeration&gt;&gt; &#xa;quantite" style="swimlane;fontStyle=1;childLayout=stackLayout;horizontal=1;startSize=46;fillColor=none;horizontalStack=0;resizeParent=1;resizeParentMax=0;resizeLast=0;collapsible=1;marginBottom=0;" vertex="1" parent="WIyWlLk6GJQsqaUBKTNV-1">
          <mxGeometry x="1030" y="377" width="140" height="94" as="geometry" />
        </mxCell>
        <mxCell id="lSlasT7Fg2n5aYY_RcPW-32" value="G" style="text;strokeColor=none;fillColor=none;align=left;verticalAlign=top;spacingLeft=4;spacingRight=4;overflow=hidden;rotatable=0;points=[[0,0.5],[1,0.5]];portConstraint=eastwest;" vertex="1" parent="lSlasT7Fg2n5aYY_RcPW-31">
          <mxGeometry y="46" width="140" height="22" as="geometry" />
        </mxCell>
        <mxCell id="lSlasT7Fg2n5aYY_RcPW-33" value="MG" style="text;strokeColor=none;fillColor=none;align=left;verticalAlign=top;spacingLeft=4;spacingRight=4;overflow=hidden;rotatable=0;points=[[0,0.5],[1,0.5]];portConstraint=eastwest;" vertex="1" parent="lSlasT7Fg2n5aYY_RcPW-31">
          <mxGeometry y="68" width="140" height="26" as="geometry" />
        </mxCell>
        <mxCell id="lSlasT7Fg2n5aYY_RcPW-35" value="&lt;&lt;enumeration&gt;&gt; &#xa;nutriment" style="swimlane;fontStyle=1;childLayout=stackLayout;horizontal=1;startSize=46;fillColor=none;horizontalStack=0;resizeParent=1;resizeParentMax=0;resizeLast=0;collapsible=1;marginBottom=0;" vertex="1" parent="WIyWlLk6GJQsqaUBKTNV-1">
          <mxGeometry x="1030" y="500" width="140" height="94" as="geometry" />
        </mxCell>
        <mxCell id="lSlasT7Fg2n5aYY_RcPW-36" value="G" style="text;strokeColor=none;fillColor=none;align=left;verticalAlign=top;spacingLeft=4;spacingRight=4;overflow=hidden;rotatable=0;points=[[0,0.5],[1,0.5]];portConstraint=eastwest;" vertex="1" parent="lSlasT7Fg2n5aYY_RcPW-35">
          <mxGeometry y="46" width="140" height="22" as="geometry" />
        </mxCell>
        <mxCell id="lSlasT7Fg2n5aYY_RcPW-37" value="MG" style="text;strokeColor=none;fillColor=none;align=left;verticalAlign=top;spacingLeft=4;spacingRight=4;overflow=hidden;rotatable=0;points=[[0,0.5],[1,0.5]];portConstraint=eastwest;" vertex="1" parent="lSlasT7Fg2n5aYY_RcPW-35">
          <mxGeometry y="68" width="140" height="26" as="geometry" />
        </mxCell>
      </root>
    </mxGraphModel>
  </diagram>
</mxfile>
